<svg width="155" height="30">
      <defs>
        <linearGradient id="gradient-394447262" x1="0" x2="0" y1="1" y2="0">
          <stop offset="0%" stop-color="#9be9a8"></stop>
          <stop offset="10%" stop-color="#40c463"></stop>
          <stop offset="25%" stop-color="#30a14e"></stop>
          <stop offset="50%" stop-color="#216e39"></stop>
        </linearGradient>
        <mask id="sparkline-394447262" x="0" y="0" width="155" height="28">
          <polyline transform="translate(0, 28) scale(1,-1)" points="0,5.73 3,9.36 6,9.0 9,3.55 12,7.18 15,2.09 18,29.0 21,13.0 24,26.82 27,15.55 30,8.64 33,10.09 36,7.55 39,7.18 42,5.73 45,4.27 48,15.55 51,1.73 54,4.640000000000001 57,1.0 60,1.73 63,1.0 66,1.0 69,1.0 72,1.0 75,1.0 78,1.0 81,1.0 84,1.0 87,1.0 90,1.0 93,1.0 96,1.0 99,1.0 102,1.0 105,1.0 108,1.0 111,1.0 114,1.0 117,1.0 120,1.0 123,1.0 126,1.0 129,1.0 132,1.0 135,1.0 138,1.0 141,1.0 144,1.0 147,1.0 150,1.0 153,1.0 " fill="transparent" stroke="#8cc665" stroke-width="2">
        </polyline></mask>
      </defs>

      <g transform="translate(0, 2.0)">
        <rect x="0" y="-2" width="155" height="30" style="stroke: none; fill: url(#gradient-394447262); mask: url(#sparkline-394447262)"></rect>
      </g>
    </svg>